<?xml version="1.0" encoding="UTF-8" standalone="no"?>
<svg
   xmlns:dc="http://purl.org/dc/elements/1.1/"
   xmlns:cc="http://creativecommons.org/ns#"
   xmlns:rdf="http://www.w3.org/1999/02/22-rdf-syntax-ns#"
   xmlns:svg="http://www.w3.org/2000/svg"
   xmlns="http://www.w3.org/2000/svg"
   viewBox="0 0 88 85.333336"
   height="85.333336"
   width="88"
   xml:space="preserve"
   id="svg2"
   version="1.1"><metadata
     id="metadata8"><rdf:RDF><cc:Work
         rdf:about=""><dc:format>image/svg+xml</dc:format><dc:type
           rdf:resource="http://purl.org/dc/dcmitype/StillImage" /></cc:Work></rdf:RDF></metadata><defs
     id="defs6" /><g
     transform="matrix(1.3333333,0,0,-1.3333333,0,85.333333)"
     id="g10"><g
       transform="translate(1,0.957687)"
       id="g12"><path
         id="path14"
         style="fill:#181c1f;fill-opacity:1;fill-rule:nonzero;stroke:none"
         d="m 62.577297,34.521519 -0.486561,-0.873646 v 0 z M 8.474181,37.015209 8.975664,36.15004 Z m 51.276235,8.889687 0.498359,0.86697 v 0 z M 56.82349,19.95887 56.324081,20.825237 v 0 z m 0.40398,6.65448 -0.499408,0.866367 v 0 z M 13.756766,37.020111 13.256889,36.154015 Z M 4.9e-4,30.850183 l 0.999974,-0.0071 z m 9.787839,16.643118 0.499036,-0.866581 v 0 z m -0.2502,-0.144645 -0.505201,0.862999 z M 9.769231,13.640083 9.269217,12.774067 v 0 z m -0.24974,0.14476 -0.506168,-0.862434 v 0 z M 4.89e-4,30.272532 -0.999486,30.265432 Z M 11.009974,19.351795 10.509773,18.485886 v 0 z m -0.0995,0.05764 0.504522,0.8634 v 0 z m -5.422167,9.393994 0.999988,0.005 z m 8.919448,1.359867 -0.497834,-0.867272 v 0 z m -1.500967,0.720546 -0.127978,-0.991777 z m -1.806343,-2.647415 0.999986,0.0054 z m 0.113403,1.661093 0.925895,-0.377781 z m 46.353231,-15.930777 -0.499432,0.866356 z m 2.281078,20.536278 -0.49836,0.866966 z m -0.09774,6.365422 -0.49836,0.86697 v 0 z M 39.783958,29.39113 l 0.49836,-0.86697 v 0 z m -12.828531,0.01123 0.499878,0.866097 z m 9.611044,-8.282339 0.49836,-0.86697 v 0 z m -6.401144,-0.0019 0.497835,0.867272 v 0 z m -0.0089,-6.406448 0.499878,0.866096 v 0 z m 6.420994,-0.0017 0.499408,-0.866367 v 0 z m -9.632376,-4.563171 0.500202,0.86591 v 0 z m 12.846159,-0.0059 0.499409,-0.866367 z M 26.959005,57.38143 26.459968,58.248011 v 0 z m 12.817711,0.005 -0.49836,-0.86697 v 0 z m -26.467745,-32.951023 0.499877,0.866096 z m -1.107169,0.709415 -0.658327,-0.752731 z m -1.033361,1.778496 -0.979965,-0.199169 z M 46.21299,7.421413 46.712421,6.555058 v 0 z m -25.68808,0.00866 0.500013,0.866016 v 0 L 20.52491,7.430069 Z M 40.282318,28.52416 60.248775,40.001472 59.252056,41.735413 39.285599,30.258101 Z m 19.067478,6.845827 -23.281685,-13.382999 0.99672,-1.73394 23.281685,13.382999 z M 46.712421,6.555058 58.066509,13.100388 57.067646,14.833099 45.713558,8.287769 Z M 9.269217,12.774067 20.024897,6.564053 21.024923,8.296085 10.269244,14.5061 Z m 1.240556,5.711819 15.935103,-9.205079 1.000404,1.73182 -15.935104,9.205078 z m 3.400147,10.810138 15.757572,-9.045215 0.99567,1.734543 -15.757574,9.045215 z M 30.656338,15.577728 13.808881,25.301422 12.809127,23.569229 29.656582,13.845535 Z M 10.287365,46.62672 27.458075,56.514774 26.460001,58.247936 9.289293,48.359882 Z m 2.969524,-10.472705 13.19866,-7.617754 0.999756,1.732193 -13.198662,7.617754 z M 37.076862,13.843521 57.726879,25.746983 56.728062,27.479717 36.078045,15.576256 Z m 3.213784,-4.569061 17.032253,9.818043 -0.998818,1.732734 -17.032253,-9.818042 z m 17.141147,16.64302 v -3.175148 h 2 V 25.91748 Z M 60.248775,46.771866 40.275108,58.253319 39.278389,56.519379 59.252056,45.037926 Z M 4.488169,31.833036 v -2.914619 h 2 v 2.914619 z m 57.602567,1.814837 C 62.652035,33.335266 63,32.743187 63,32.100708 h 2 c 0,1.368061 -0.740944,2.628815 -1.936142,3.294456 z M 7.972698,37.880379 C 5.815894,36.630211 4.488169,34.32597 4.488169,31.833036 h 2 c 0,1.779627 0.947821,3.424555 2.487495,4.317004 z m 54.234791,5.50629 c 0,1.397625 -0.747005,2.688671 -1.958714,3.385197 l -0.996719,-1.73394 c 0.591049,-0.339752 0.955433,-0.969506 0.955433,-1.651257 z m -4.88459,-24.294166 c 0.375576,0.216495 0.720112,0.413807 0.99255,0.608806 0.29034,0.207817 0.562881,0.456104 0.766708,0.808861 l -1.731712,1.000595 c -0.01166,-0.02019 -0.04309,-0.07148 -0.199063,-0.183124 -0.173873,-0.124451 -0.417999,-0.266465 -0.827301,-0.502404 z m 0.108894,3.649829 c 0,-0.472435 -0.0011,-0.754859 -0.02211,-0.967651 -0.01883,-0.190884 -0.04757,-0.243729 -0.05924,-0.263916 l 1.731712,-1.000595 c 0.203823,0.35276 0.282826,0.712875 0.317871,1.068199 0.03289,0.33342 0.03177,0.730454 0.03177,1.163963 h -2 z m 0.295086,3.004651 c 0.137306,0.07915 0.241814,0.139309 0.331173,0.18769 0.09089,0.04922 0.139649,0.07161 0.163483,0.08101 0.02674,0.01054 -0.01839,-0.01181 -0.108376,-0.01616 -0.04929,-0.0024 -0.112003,5.99e-4 -0.182792,0.01671 -0.07179,0.01634 -0.139317,0.04335 -0.199555,0.07816 l 1.000595,1.731705 c -0.501133,0.289561 -0.990406,0.149945 -1.243393,0.05021 -0.244495,-0.09639 -0.521557,-0.259174 -0.759952,-0.396595 l 0.998817,-1.732734 z m 1.704914,0.170497 c 0,0.27517 0.0027,0.596505 -0.03593,0.856465 -0.03994,0.268986 -0.163323,0.762604 -0.664456,1.052158 l -1.000595,-1.731705 c -0.06024,0.03481 -0.117363,0.07981 -0.167374,0.133851 -0.04931,0.05328 -0.08321,0.106128 -0.105766,0.150016 -0.04117,0.08014 -0.04435,0.130402 -0.04012,0.101963 0.0038,-0.02534 0.0087,-0.07877 0.01146,-0.182098 0.0027,-0.101578 0.0028,-0.22216 0.0028,-0.38065 h 2 z m -45.17515,11.968728 c -1.944829,1.122478 -4.341201,1.120254 -6.283945,-0.0058 L 8.975664,36.15004 c 1.323583,0.7672 2.956221,0.768715 4.281225,0.004 l 0.999754,1.732193 z M 1,30.561184 c 0,0.148346 6e-6,0.217567 4.64e-4,0.28187 l -1.999949,0.01426 C -1.000006,30.784187 -1,30.706549 -1,30.561184 Z M 9.289293,48.359882 C 9.163326,48.287342 9.096038,48.2486 9.032928,48.211655 l 1.010402,-1.726002 c 0.05549,0.03249 0.11547,0.06703 0.244035,0.141067 z M 1.000464,30.843054 C 1.046405,37.286797 4.48223,43.230183 10.04333,46.485653 L 9.032928,48.211655 C 2.863285,44.599945 -0.948517,38.006184 -0.999485,30.857313 Z M 10.269244,14.5061 c -0.128286,0.07407 -0.188179,0.108661 -0.243584,0.141178 L 9.013323,12.922409 c 0.062992,-0.03697 0.130128,-0.07573 0.255894,-0.148342 z M -1,30.561184 c 0,-0.145187 -6e-6,-0.222729 5.14e-4,-0.295775 l 1.999949,0.01425 C 1.000006,30.343887 1,30.413021 1,30.561184 Z M 10.02566,14.647278 c -5.551192,3.25803 -8.979357,9.195888 -9.025197,15.632376 l -1.999949,-0.01425 c 0.050855,-7.140821 3.85416,-13.728452 10.012809,-17.343 l 1.012337,1.724869 z m 1.484516,5.570427 c -0.05141,0.0297 -0.07422,0.04288 -0.09518,0.05513 l -1.009044,-1.726799 c 0.02626,-0.01534 0.05404,-0.03139 0.103822,-0.06015 l 1.000403,1.731819 z m -7.022007,8.700712 c 0,-0.05741 -3e-6,-0.08955 1.49e-4,-0.119986 l 1.999976,0.01 c -1.21e-4,0.02426 -1.25e-4,0.05054 -1.25e-4,0.109991 h -2 z m 6.926826,-8.645582 c -3.035877,1.773998 -4.90913,5.019439 -4.926701,8.535591 l -1.999976,-0.01 c 0.021107,-4.223369 2.271135,-8.121582 5.917633,-10.252395 l 1.009044,1.726799 z m 3.490593,10.757732 c -0.384105,0.220486 -0.709564,0.407767 -0.978515,0.542139 -0.264217,0.132008 -0.563637,0.260502 -0.892308,0.302914 l -0.255956,-1.983555 c -0.01171,0.0015 0.04469,-0.0037 0.254381,-0.108486 0.204957,-0.1024 0.471499,-0.254944 0.87673,-0.487555 z M 12.10043,28.241798 c -0.0025,0.46724 -0.0038,0.774344 0.0082,1.003144 0.01227,0.234085 0.03554,0.285726 0.03108,0.274797 l -1.85179,0.755562 c -0.125195,-0.306837 -0.161078,-0.630682 -0.176544,-0.925634 -0.01574,-0.30024 -0.01333,-0.675728 -0.01095,-1.118611 l 1.999972,0.01074 z m 0.934335,3.633822 c -1.172596,0.151312 -2.300155,-0.505617 -2.746813,-1.600319 l 1.85179,-0.755562 c 0.103919,0.25469 0.366254,0.40753 0.639067,0.372326 z M 58.066509,13.100388 c 1.55283,0.895168 2.7803,1.601478 3.722168,2.275665 0.95977,0.687004 1.688221,1.384659 2.21526,2.296821 l -1.73172,1.000573 C 61.937328,18.093845 61.449978,17.593182 60.624573,17.002357 59.781269,16.39872 58.654202,15.747704 57.067646,14.833099 Z M 63,25.100437 c 0,-1.831299 -0.0011,-3.132877 -0.102913,-4.164951 -0.09963,-1.01017 -0.289986,-1.682442 -0.62487,-2.262039 l 1.73172,-1.000573 c 0.527038,0.912163 0.767647,1.891697 0.883491,3.066308 C 65.001122,21.891884 65,23.308064 65,25.100437 Z m -2.653484,8.53561 c 0.53902,0.309845 1.201046,0.314335 1.74422,0.01183 l 0.973122,1.747291 c -1.156605,0.64415 -2.566292,0.634598 -3.714062,-0.02518 l 0.99672,-1.73394 z m -0.09774,6.365425 c 1.211709,0.696526 1.958714,1.987572 1.958714,3.385197 h -2 c 0,-0.681751 -0.364384,-1.311504 -0.955433,-1.651256 z M 39.285599,30.258101 c -1.582966,-0.909935 -2.708557,-1.555672 -3.65128,-1.980757 -0.922702,-0.416058 -1.598514,-0.586071 -2.266124,-0.585488 l -0.0017,-2 c 1.050618,-9.19e-4 2.016991,0.278443 3.089985,0.762268 1.052971,0.474797 2.276581,1.179451 3.825886,2.070036 l -0.996719,1.733941 z m -12.83005,-1.72184 c 1.547743,-0.893298 2.770115,-1.600089 3.822253,-2.076727 1.072141,-0.485703 2.038024,-0.766758 3.088645,-0.767678 l 0.0017,2 c -0.667607,5.84e-4 -1.343117,0.17178 -2.265089,0.589453 -0.941975,0.426735 -2.066433,1.07444 -3.647801,1.987145 l -0.999756,-1.732193 z m 9.612562,-6.549273 c -0.797817,-0.45861 -1.334678,-0.76593 -1.777313,-0.965622 -0.422664,-0.190681 -0.687286,-0.248405 -0.924793,-0.248478 l 6.03e-4,-2 c 0.619583,1.87e-4 1.174015,0.167072 1.74665,0.425415 0.552662,0.249329 1.18734,0.615441 1.951573,1.054745 z m -6.400619,-1.736179 c 0.764498,-0.438839 1.399401,-0.80457 1.952211,-1.053566 0.57279,-0.257992 1.127325,-0.424542 1.746905,-0.424355 l -6.03e-4,2 c -0.237507,-7.2e-5 -0.502167,0.05749 -0.924942,0.247917 -0.442761,0.199425 -0.979803,0.50642 -1.777901,0.964547 z m -0.01091,-6.405274 c 0.766493,-0.44239 1.402994,-0.811043 1.957313,-1.062095 0.574349,-0.260125 1.130597,-0.428189 1.752423,-0.428357 l 5.41e-4,2 c -0.23833,6.5e-5 -0.503818,0.05818 -0.927837,0.25021 -0.44404,0.201111 -0.982527,0.510617 -1.782684,0.972435 z m 6.421463,1.730721 C 35.277637,15.114872 34.738983,14.80566 34.294834,14.60479 33.870712,14.412983 33.60519,14.355019 33.366859,14.355083 l -5.41e-4,-2 c 0.621822,-1.67e-4 1.178165,0.167592 1.752651,0.427403 0.554459,0.250751 1.191158,0.61906 1.957893,1.061035 z M 26.444876,9.280807 C 27.995001,8.385361 29.219233,7.67688 30.27298,7.199196 31.346756,6.712433 32.314156,6.430901 33.366455,6.430416 l 9.16e-4,2 c -0.668656,3.05e-4 -1.345215,0.171749 -2.268637,0.590355 -0.943453,0.427685 -2.06966,1.076958 -3.653454,1.991856 z m 12.846952,1.726388 C 37.707195,10.09375 36.580391,9.445511 35.636551,9.018692 34.712746,8.600933 34.03603,8.430111 33.367371,8.430416 l -9.16e-4,-2 c 1.052296,-4.81e-4 2.019955,0.280167 3.094177,0.765946 1.054184,0.476715 2.279065,1.184074 3.830014,2.078098 z M 27.458075,56.514774 c 1.580555,0.910187 2.70442,1.556103 3.645805,1.981556 0.921389,0.41642 1.596384,0.586968 2.263349,0.587227 l -7.78e-4,2 c -1.049591,-4.08e-4 -2.014753,-0.280453 -3.08625,-0.764713 -1.051502,-0.475224 -2.27326,-1.180077 -3.8202,-2.070908 z m 12.817033,1.738545 c -1.547634,0.889625 -2.769939,1.593529 -3.821811,2.067932 -1.071877,0.483421 -2.037255,0.762714 -3.086846,0.762306 l 7.78e-4,-2 c 0.66697,2.6e-4 1.342095,-0.169762 2.26381,-0.585461 0.941715,-0.42472 2.066085,-1.069759 3.64735,-1.978717 z M 13.808881,25.301422 c -0.615958,0.355507 -0.803173,0.468758 -0.948719,0.59605 L 11.543508,24.39201 c 0.327871,-0.286751 0.720963,-0.508427 1.265619,-0.822781 z m -3.708423,2.929634 c 0.0034,-0.62886 0.0013,-1.080139 0.08805,-1.506988 l 1.95993,0.398338 c -0.03851,0.189484 -0.04419,0.408218 -0.04801,1.119392 l -1.999972,-0.01074 z m 2.759704,-2.333584 c -0.365066,0.319279 -0.615128,0.749657 -0.711723,1.224934 l -1.95993,-0.398338 c 0.183898,-0.904835 0.659972,-1.724202 1.354999,-2.332058 z M 45.713558,8.287769 C 42.561848,6.47089 40.259727,5.145069 38.317295,4.266579 36.394901,3.397148 34.896309,3.000553 33.367462,3.001068 l -6.71e-4,-2 c 1.912407,-6.45e-4 3.701877,0.505768 5.774666,1.443215 2.052749,0.928386 4.452934,2.313316 7.570964,4.110775 z M 20.024897,6.564053 C 23.141716,4.764492 25.540966,3.377941 27.593094,2.448174 29.665251,1.509327 31.45438,1.001713 33.366791,1.001068 l 6.71e-4,2 c -1.528843,5.15e-4 -3.027168,0.398117 -4.94898,1.268845 -1.941841,0.879802 -4.243071,2.207172 -7.393559,4.026172 z M 63,32.100708 v -7.000271 h 2 v 7.000271 z" /></g></g></svg>